<?xml version="1.0" encoding="utf-8"?>
<!-- Generator: Adobe Illustrator 19.1.0, SVG Export Plug-In . SVG Version: 6.00 Build 0)  -->
<svg version="1.1" id="wordmark"
	 xmlns="http://www.w3.org/2000/svg" xmlns:xlink="http://www.w3.org/1999/xlink" x="0px" y="0px" viewBox="-107.5 49.1 500 300"
	 xml:space="preserve">
<filter id="blur-effect-1">
    <feGaussianBlur stdDeviation="12" />
</filter>
<g id="wordmark_parent_group">
	<g>
		<ellipse cx="142" cy="195" rx="180" ry="80" style="fill:rgba(255,255,255,1); stroke:none; stroke-width:none; filter:url(#blur-effect-1);" />
	</g>
	<g>
		<path fill="#545356" d="M11.9,223.3v-16.7h4.3v16.7H11.9z"/>
		<path fill="#545356" d="M48.8,223.3l-7.1-9.7v9.7h-4.3v-16.7h4.4l6.8,9.2v-9.2h4.3v16.7H48.8z"/>
		<path fill="#545356" d="M72.6,221l2.3-3.2c1.2,1.2,3.1,2.2,5.3,2.2c1.5,0,2.4-0.6,2.4-1.4c0-2.3-9.5-0.5-9.5-6.9
			c0-2.8,2.4-5.3,6.7-5.3c2.7,0,5,0.8,6.8,2.3l-2.4,3.1c-1.4-1.2-3.2-1.7-4.9-1.7c-1.3,0-1.8,0.5-1.8,1.2c0,2.1,9.4,0.6,9.4,6.8
			c0,3.4-2.5,5.6-7,5.6C76.6,223.6,74.2,222.6,72.6,221z"/>
		<path fill="#545356" d="M109.1,223.3v-13h-4.7v-3.7h13.7v3.8h-4.7v13L109.1,223.3L109.1,223.3z"/>
		<path fill="#545356" d="M136.9,223.3v-16.7h4.3v16.7H136.9z"/>
		<path fill="#545356" d="M164.7,223.3v-13H160v-3.7h13.7v3.8H169v13L164.7,223.3L164.7,223.3z"/>
		<path fill="#545356" d="M192.4,216.6v-10h4.4v9.8c0,2,1.2,3.4,3.5,3.4s3.5-1.4,3.5-3.4v-9.8h4.4v9.9c0,4.2-2.5,7.1-7.9,7.1
			S192.4,220.7,192.4,216.6z"/>
		<path fill="#545356" d="M232.2,223.3v-13h-4.7v-3.7h13.7v3.8h-4.7v13L232.2,223.3L232.2,223.3z"/>
		<path fill="#545356" d="M261.1,223.3v-16.7h12.3v3.8h-7.9v2.6h7.8v3.8h-7.8v2.8h7.9v3.8L261.1,223.3L261.1,223.3z"/>
	</g>
	<g>
		<path fill="#545356" d="M12.7,243.5v-5.3h-1v-0.8h1v-0.5c0-1.3,0.7-2,1.8-2c0.5,0,0.9,0.1,1.3,0.5l-0.4,0.6
			c-0.2-0.2-0.4-0.3-0.8-0.3c-0.6,0-1,0.4-1,1.2v0.5h1.2v0.8h-1.2v5.3H12.7z"/>
		<path fill="#545356" d="M20.6,240.4c0-1.8,1.2-3.2,3-3.2c1.8,0,3,1.4,3,3.2c0,1.8-1.2,3.2-3,3.2C21.8,243.6,20.6,242.2,20.6,240.4
			z M25.7,240.4c0-1.2-0.7-2.4-2-2.4c-1.3,0-2,1.1-2,2.4s0.7,2.4,2,2.4C25,242.8,25.7,241.7,25.7,240.4z"/>
		<path fill="#545356" d="M33.2,243.5v-6.1h0.9v1c0.5-0.6,1.2-1.1,2-1.1v1c-0.1,0-0.2,0-0.4,0c-0.6,0-1.4,0.5-1.7,1v4.3L33.2,243.5
			L33.2,243.5z"/>
		<path fill="#545356" d="M50.6,243.5V235h3.8c1.5,0,2.4,0.9,2.4,2.2c0,1.1-0.7,1.8-1.5,1.9c0.9,0.1,1.6,1.1,1.6,2.1
			c0,1.4-0.9,2.3-2.4,2.3H50.6z M55.7,237.3c0-0.8-0.5-1.4-1.5-1.4h-2.5v2.7h2.5C55.2,238.7,55.7,238.1,55.7,237.3z M55.8,241.1
			c0-0.8-0.5-1.5-1.6-1.5h-2.6v2.9h2.6C55.2,242.6,55.8,242,55.8,241.1z"/>
		<path fill="#545356" d="M63.6,243.5V235h1.1v8.5H63.6z"/>
		<path fill="#545356" d="M71.2,239.3c0-2.5,1.7-4.4,4.2-4.4s4.2,1.9,4.2,4.4s-1.7,4.4-4.2,4.4C72.9,243.6,71.2,241.8,71.2,239.3z
			 M78.5,239.3c0-2-1.2-3.4-3.1-3.4c-1.9,0-3.1,1.5-3.1,3.4c0,2,1.2,3.4,3.1,3.4C77.3,242.7,78.5,241.2,78.5,239.3z"/>
		<path fill="#545356" d="M93.4,243.5v-7l-2.9,7h-0.4l-2.9-7v7h-1.1V235h1.5l2.6,6.4l2.6-6.4h1.5v8.5H93.4z"/>
		<path fill="#545356" d="M101.4,243.5V235h5.5v0.9h-4.5v2.7h4.4v0.9h-4.4v2.9h4.5v0.9h-5.5V243.5z"/>
		<path fill="#545356" d="M113.6,243.5V235h2.9c2.6,0,4.3,1.8,4.3,4.2s-1.7,4.2-4.3,4.2L113.6,243.5L113.6,243.5z M119.7,239.3
			c0-1.8-1.2-3.3-3.2-3.3h-1.9v6.6h1.8C118.5,242.6,119.7,241.1,119.7,239.3z"/>
		<path fill="#545356" d="M127.4,243.5V235h1.1v8.5H127.4z"/>
		<path fill="#545356" d="M135.1,239.3c0-2.6,1.9-4.4,4.3-4.4c1.5,0,2.5,0.7,3.2,1.7l-0.9,0.5c-0.5-0.7-1.4-1.2-2.3-1.2
			c-1.9,0-3.3,1.4-3.3,3.4s1.4,3.4,3.3,3.4c1,0,1.8-0.5,2.3-1.2l0.9,0.5c-0.7,1-1.7,1.7-3.2,1.7C137,243.6,135.1,241.9,135.1,239.3z
			"/>
		<path fill="#545356" d="M154.9,243.5l-0.7-1.9H150l-0.7,1.9h-1.2l3.4-8.5h1.3l3.4,8.5H154.9z M152.1,236.1l-1.8,4.5h3.6
			L152.1,236.1z"/>
		<path fill="#545356" d="M162.2,243.5V235h1.1v7.5h3.9v0.9h-5V243.5z"/>
		<path fill="#545356" d="M181.4,242.3l0.6-0.8c0.6,0.6,1.5,1.2,2.7,1.2c1.5,0,2-0.8,2-1.5c0-2.2-5-1-5-4c0-1.4,1.2-2.3,2.9-2.3
			c1.3,0,2.3,0.4,3,1.2l-0.6,0.8c-0.6-0.7-1.5-1-2.4-1c-1,0-1.7,0.5-1.7,1.3c0,1.9,5,0.8,5,4c0,1.2-0.8,2.5-3.1,2.5
			C183.1,243.6,182.1,243.1,181.4,242.3z"/>
		<path fill="#545356" d="M193.9,239.3c0-2.6,1.9-4.4,4.3-4.4c1.5,0,2.5,0.7,3.2,1.7l-0.9,0.5c-0.5-0.7-1.4-1.2-2.3-1.2
			c-1.8,0-3.3,1.4-3.3,3.4s1.4,3.4,3.3,3.4c1,0,1.8-0.5,2.3-1.2l0.9,0.5c-0.7,1-1.7,1.7-3.2,1.7
			C195.8,243.6,193.9,241.9,193.9,239.3z"/>
		<path fill="#545356" d="M207.8,243.5V235h1.1v8.5H207.8z"/>
		<path fill="#545356" d="M215.8,243.5V235h5.5v0.9h-4.5v2.7h4.4v0.9h-4.4v2.9h4.5v0.9h-5.5V243.5z"/>
		<path fill="#545356" d="M233.9,243.5l-4.9-6.7v6.7h-1.1V235h1.1l4.9,6.6V235h1.1v8.5H233.9z"/>
		<path fill="#545356" d="M241.6,239.3c0-2.6,1.9-4.4,4.3-4.4c1.5,0,2.5,0.7,3.2,1.7l-0.9,0.5c-0.5-0.7-1.4-1.2-2.3-1.2
			c-1.9,0-3.3,1.4-3.3,3.4s1.4,3.4,3.3,3.4c1,0,1.8-0.5,2.3-1.2l0.9,0.5c-0.7,1-1.7,1.7-3.2,1.7
			C243.4,243.6,241.6,241.9,241.6,239.3z"/>
		<path fill="#545356" d="M255.4,243.5V235h5.5v0.9h-4.5v2.7h4.4v0.9h-4.4v2.9h4.5v0.9h-5.5V243.5z"/>
		<path fill="#545356" d="M267.1,242.3l0.6-0.8c0.6,0.6,1.5,1.2,2.7,1.2c1.5,0,2-0.8,2-1.5c0-2.2-5-1-5-4c0-1.4,1.2-2.3,2.9-2.3
			c1.3,0,2.3,0.4,3,1.2l-0.6,0.8c-0.6-0.7-1.5-1-2.4-1c-1,0-1.7,0.5-1.7,1.3c0,1.9,5,0.8,5,4c0,1.2-0.8,2.5-3.1,2.5
			C268.9,243.6,267.8,243.1,267.1,242.3z"/>
	</g>
	<g>
		<g>
			<g>
				<path fill="#545356" d="M78.8,154.4v31.4h28.8v8.1h-37v-39.5H78.8z"/>
				<path fill="#545356" d="M117,193.8v-32H99.5v-7.4h43.3v7.4h-17.5v32H117z"/>
				<path fill="#545356" d="M160.9,154.4v39.4h-8.2v-39.4H160.9z"/>
			</g>
			<path fill="#545356" d="M171.4,154.4h8.3v20.5c0,9.5,3.3,11.6,16.3,11.6s16.2-2.1,16.2-11.6v-20.5h8.3v20.5
				c0,14.3-6.7,19.7-24.5,19.7s-24.6-5.4-24.6-19.7V154.4z"/>
			<path fill="#545356" d="M260.8,186.6c4.9,0,6.4-1.5,6.4-3.7c0-2.7-2.4-4-8.1-4.5l-17.2-1.5c-8.9-0.7-14.3-3.9-14.3-11.2
				c0-8.4,7.1-11.4,15.2-11.4H273v7.4h-31c-3.9,0-6.1,1-6.1,3.7c0,2.2,1.5,3.4,8,3.9l16.3,1.4c9.3,0.8,15.4,3.7,15.4,11.7
				c0,6.7-4.3,11.5-15.5,11.5h-32.8v-7.3H260.8z"/>
		</g>
		<path fill="#545356" d="M42.3,156.8L42.3,156.8c-1.1-1.7-3.1-2.9-5.3-2.9s-4.2,1.2-5.3,2.9l0,0l-22.4,37h9.8l5-8.3h26l4.9,8.3h9.7
			L42.3,156.8z M27.6,179.3l9.3-16.2l9.3,16.2H27.6z"/>
	</g>
</g>
</svg>
